<?xml version="1.0" encoding="UTF-8" standalone="no"?>
<svg
   xmlns:dc="http://purl.org/dc/elements/1.1/"
   xmlns:cc="http://creativecommons.org/ns#"
   xmlns:rdf="http://www.w3.org/1999/02/22-rdf-syntax-ns#"
   xmlns:svg="http://www.w3.org/2000/svg"
   xmlns="http://www.w3.org/2000/svg"
   width="311.32419mm"
   height="353.07565mm"
   viewBox="0 0 311.32418 353.07564"
   version="1.1"
   id="svg8">
  <defs
     id="defs2"><clipPath
   id="clipPath20"
   clipPathUnits="userSpaceOnUse">
  <path
     id="path18"
     d="M 0,0 H 1730 V 1730 H 0 Z" />
</clipPath>
<clipPath
   id="clipPath26"
   clipPathUnits="userSpaceOnUse">
  <path
     id="path24"
     d="M 865,0 C 387.277,0 0,387.289 0,865.012 c 0,477.718 387.277,864.998 865,864.998 477.72,0 865,-387.28 865,-864.998 C 1730,387.289 1342.72,0 865,0 m -28.801,1200.75 c -23.734,-35.18 -44.535,-73.27 -62.078,-113.77 l -0.375,-0.89 -64.043,-156.246 -0.844,-2.207 c -25.418,-71.809 -43.902,-113.18 -54.933,-135.25 l -0.727,-1.524 c -19.375,-42.422 -36.758,-73.453 -53.148,-94.902 -19.094,-23.59 -38.348,-39.629 -60.528,-50.371 -25.39,-11.828 -54.117,-17.602 -87.808,-17.602 -26.75,0 -48.438,-21.679 -48.438,-48.429 v -198.95 c 0,-26.757 21.688,-48.437 48.438,-48.437 155.531,0 283.14,60.238 379.281,179.058 l 0.957,1.219 c 27.242,35.973 51.578,75.153 74.379,119.781 l 1.25,2.641 41.66,95.192 h 196.388 c 26.75,0 48.44,21.699 48.44,48.437 v 198.004 c 0,26.746 -21.69,48.436 -48.44,48.436 h -71.7 c 2.18,3.64 4.35,7.17 6.55,10.6 14.84,22.66 28.89,39.31 41.79,49.49 l 1.49,1.22 c 16.15,13.84 32.45,23.31 51.29,29.84 7.12,2.46 14.43,4.5 22.01,6.12 65.99,-16.86 119.62,-30.8 148.43,-35.76 31.76,-5.48 57.89,-7.79 79.35,-7.79 114.14,0 96.59,65.17 96.59,65.17 -54.96,298.83 -311.98,526.95 -624.2,537.37 h -0.035 c -0.136,0.01 -0.25,0.01 -0.386,0.01 h -0.036 c -0.136,0.01 -0.25,0.01 -0.386,0.02 h -0.039 c -0.118,0 -0.278,0.01 -0.395,0.01 v 0 c -0.683,0.03 -1.375,0.05 -2.058,0.06 -0.016,0 -0.032,0 -0.047,0 -0.118,0.01 -0.235,0.01 -0.352,0.02 -0.035,0 -0.051,0 -0.086,0 -0.097,0 -0.23,0 -0.328,0.01 -0.035,0 -0.078,0 -0.113,0 -0.117,0 -0.203,0.01 -0.321,0.01 -0.035,0 -0.078,0 -0.113,0 -0.097,0 -0.219,0.01 -0.316,0.01 -0.055,0 -0.067,0 -0.121,0 -0.118,0.01 -0.203,0.01 -0.321,0.01 -0.015,0 -0.07,0 -0.086,0 -0.117,0.01 -0.23,0.01 -0.347,0.01 h -0.004 c -0.391,0.01 -0.754,0.02 -1.145,0.03 -0.035,0 -0.097,0 -0.132,0 -0.083,0 -0.192,0.01 -0.27,0.01 -0.055,0 -0.129,0 -0.18,0 -0.097,0 -0.164,0 -0.261,0.01 -0.051,0 -0.129,0 -0.18,0 -0.078,0 -0.184,0.01 -0.262,0.01 -0.066,0 -0.109,0 -0.18,0 -0.097,0 -0.167,0 -0.265,0 -0.055,0.01 -0.121,0.01 -0.172,0.01 -0.078,0 -0.184,0 -0.266,0.01 -0.066,0 -0.113,0 -0.183,0 -0.078,0 -0.18,0 -0.258,0 -0.055,0 -0.125,0 -0.176,0.01 -0.097,0 -0.168,0 -0.265,0 -0.02,0 -0.043,0 -0.059,0 -0.195,0 -0.391,0.01 -0.586,0.01 -0.09,0 -0.141,0.01 -0.227,0.01 -0.078,0 -0.136,0 -0.218,0 -0.071,0 -0.153,0 -0.219,0 -0.078,0 -0.152,0 -0.231,0.01 -0.07,0 -0.152,0 -0.218,0 -0.078,0 -0.157,0 -0.235,0.01 -0.07,0 -0.136,0 -0.207,0 -0.078,0 -0.156,0 -0.234,0 -0.07,0 -0.152,0 -0.223,0 -0.058,0 -0.16,0.01 -0.218,0.01 -0.071,0 -0.157,0 -0.227,0 -0.078,0 -0.145,0 -0.223,0 -0.086,0.01 -0.152,0.01 -0.242,0.01 -0.078,0 -0.121,0 -0.199,0 -0.106,0 -0.211,0 -0.316,0 -0.059,0 -0.137,0 -0.196,0 -0.125,0.01 -0.25,0.01 -0.375,0.01 -0.058,0 -0.113,0 -0.172,0 -0.086,0 -0.179,0.01 -0.269,0.01 -0.078,0 -0.129,0 -0.207,0 -0.071,0 -0.168,0 -0.239,0 -0.058,0 -0.148,0 -0.207,0 -0.089,0 -0.16,0 -0.246,0 -0.078,0 -0.125,0 -0.203,0.01 -0.07,0 -0.179,0 -0.25,0 -0.058,0 -0.14,0 -0.199,0 -0.086,0 -0.16,0 -0.25,0 -0.059,0 -0.141,0 -0.199,0 -0.09,0 -0.172,0 -0.262,0 -0.059,0 -0.125,0 -0.184,0 -0.105,0 -0.214,0.01 -0.32,0.01 -0.039,0 -0.086,0 -0.125,0 -0.14,0 -0.312,0 -0.453,0 -0.019,0 -0.062,0 -0.082,0 -0.125,0 -0.234,0 -0.359,0 -0.059,0 -0.114,0 -0.172,0.01 -0.086,0 -0.192,0 -0.281,0 -0.059,0 -0.125,0 -0.184,0 -0.09,0 -0.168,0 -0.258,0 -0.058,0 -0.144,0 -0.203,0 -0.07,0 -0.18,0 -0.25,0 -0.078,0 -0.117,0 -0.195,0 -0.09,0 -0.168,0 -0.258,0 -0.059,0 -0.133,0 -0.192,0 -0.089,0 -0.183,0 -0.269,0 -0.063,0 -0.121,0 -0.18,0 -0.105,0 -0.187,0 -0.293,0 -0.039,0 -0.117,0 -0.156,0 -0.141,0 -0.309,0 -0.449,0 v 0 c -0.098,0 -0.203,0 -0.305,0 -215.476,-0.1 -406.687,-103.86 -526.504,-264.14 -73.687,-88.59 -119.453,-188.51 -121.078,-281.47 -0.625,-35.75 25.09,-49.51 80.445,-49.51 103.805,0 200.684,117.64 387.528,124.56 5.437,0.2 11.047,0.3 16.781,0.3 36.625,0 79.078,-3.99 124.406,-10.56" />
</clipPath>
<radialGradient
   id="radialGradient36"
   spreadMethod="pad"
   gradientTransform="matrix(865.003,0,0,-865.003,865.002,865.007)"
   gradientUnits="userSpaceOnUse"
   r="1"
   cy="0"
   cx="0"
   fy="0"
   fx="0">
  <stop
     id="stop28"
     offset="0"
     style="stop-opacity:1;stop-color:#f8a4d6" />
  <stop
     id="stop30"
     offset="0.00561798"
     style="stop-opacity:1;stop-color:#f8a4d6" />
  <stop
     id="stop32"
     offset="0.674157"
     style="stop-opacity:1;stop-color:#e62d22" />
  <stop
     id="stop34"
     offset="1"
     style="stop-opacity:1;stop-color:#851a1c" />
</radialGradient>
<clipPath
   id="clipPath50"
   clipPathUnits="userSpaceOnUse">
  <path
     id="path48"
     d="m 1424.84,1078.66 c -21.46,0 -47.59,2.31 -79.35,7.79 -28.81,4.96 -82.44,18.9 -148.43,35.76 15.04,3.22 31.09,4.8 48.54,4.8 26.75,0 48.45,21.68 48.45,48.44 v 197.01 c 0,26.76 -21.7,48.45 -48.45,48.45 -156.4,0 -284.053,-60.31 -379.416,-179.25 l -0.133,-0.16 c -10.406,-13.1 -20.363,-26.69 -29.852,-40.75 -45.328,6.57 -87.781,10.56 -124.406,10.56 -5.734,0 -11.344,-0.1 -16.781,-0.3 -186.844,-6.92 -283.723,-124.56 -387.528,-124.56 -55.355,0 -81.07,13.76 -80.445,49.51 1.625,92.96 47.391,192.88 121.078,281.47 -40.336,-53.95 -72.59,-114.33 -94.941,-179.29 106.75,236.95 344.992,401.91 621.75,401.91 276.774,0 515.004,-164.95 621.764,-401.91 v 0 0 c -86.48,251.34 -321.01,433.79 -599.46,443.06 312.22,-10.42 569.24,-238.54 624.2,-537.37 0,0 17.55,-65.17 -96.59,-65.17" />
</clipPath>
<clipPath
   id="clipPath62"
   clipPathUnits="userSpaceOnUse">
  <path
     id="path60"
     d="m 1118.01,1142.15 c -72.75,18 -152.99,36.62 -228.662,50.01 4.859,6.65 9.742,13.05 14.621,19.19 86.386,107.74 199.931,161.11 341.631,161.11 v -197.01 c -33,0 -61.15,-4.85 -86.4,-13.59 -14.88,-5.15 -28.41,-11.65 -41.19,-19.71" />
</clipPath>
<linearGradient
   id="linearGradient70"
   spreadMethod="pad"
   gradientTransform="matrix(-1e-7,-602.909,-602.909,1e-7,874.715,1681.57)"
   gradientUnits="userSpaceOnUse"
   y2="0"
   x2="1"
   y1="0"
   x1="0">
  <stop
     id="stop64"
     offset="0"
     style="stop-opacity:1;stop-color:#ffffff" />
  <stop
     id="stop66"
     offset="0.00561798"
     style="stop-opacity:1;stop-color:#ffffff" />
  <stop
     id="stop68"
     offset="1"
     style="stop-opacity:1;stop-color:#ffffff" />
</linearGradient>
<clipPath
   id="clipPath80"
   clipPathUnits="userSpaceOnUse">
  <path
     id="path78"
     d="m 1197.06,1122.21 c -24.82,6.34 -51.41,13.09 -79.05,19.94 12.78,8.06 26.31,14.56 41.19,19.71 25.25,8.74 53.4,13.59 86.4,13.59 v 197.01 c -141.7,0 -255.245,-53.37 -341.631,-161.11 -4.879,-6.14 -9.762,-12.54 -14.621,-19.19 -18.039,3.18 -35.793,6.07 -53.149,8.59 9.489,14.06 19.446,27.65 29.852,40.75 l 0.133,0.16 c 95.363,118.94 223.016,179.25 379.416,179.25 26.75,0 48.45,-21.69 48.45,-48.45 v -197.01 c 0,-26.76 -21.7,-48.44 -48.45,-48.44 -17.45,0 -33.5,-1.58 -48.54,-4.8" />
</clipPath>
<linearGradient
   id="linearGradient88"
   spreadMethod="pad"
   gradientTransform="matrix(-1e-7,-602.909,-602.909,1e-7,874.715,1681.57)"
   gradientUnits="userSpaceOnUse"
   y2="0"
   x2="1"
   y1="0"
   x1="0">
  <stop
     id="stop82"
     offset="0"
     style="stop-opacity:1;stop-color:#f1cfca" />
  <stop
     id="stop84"
     offset="0.00561798"
     style="stop-opacity:1;stop-color:#f1cfca" />
  <stop
     id="stop86"
     offset="1"
     style="stop-opacity:1;stop-color:#ba2f22" />
</linearGradient>
<clipPath
   id="clipPath98"
   clipPathUnits="userSpaceOnUse">
  <path
     id="path96"
     d="m 897.195,1681.2 c -0.136,0.01 -0.246,0.01 -0.386,0.01 0.136,0 0.25,0 0.386,-0.01 m -0.422,0.01 c -0.14,0.01 -0.246,0.01 -0.386,0.02 0.136,-0.01 0.25,-0.01 0.386,-0.02 m -0.425,0.02 c -0.141,0 -0.254,0.01 -0.395,0.01 0.117,0 0.277,-0.01 0.395,-0.01 m -0.395,0.01 c -0.683,0.03 -1.379,0.05 -2.058,0.06 0.683,-0.01 1.375,-0.03 2.058,-0.06 m -2.105,0.06 c -0.121,0.01 -0.231,0.01 -0.352,0.02 0.117,-0.01 0.234,-0.01 0.352,-0.02 m -0.438,0.02 c -0.105,0 -0.222,0 -0.328,0.01 0.098,-0.01 0.231,-0.01 0.328,-0.01 m -0.441,0.01 c -0.106,0 -0.215,0.01 -0.321,0.01 0.118,0 0.204,-0.01 0.321,-0.01 m -0.434,0.01 c -0.105,0 -0.215,0.01 -0.316,0.01 0.097,0 0.219,-0.01 0.316,-0.01 m -0.437,0.01 c -0.102,0.01 -0.215,0.01 -0.321,0.01 0.118,0 0.203,0 0.321,-0.01 m -0.407,0.01 c -0.125,0.01 -0.226,0.01 -0.347,0.01 0.117,0 0.23,0 0.347,-0.01 m -0.351,0.01 c -0.387,0.01 -0.762,0.02 -1.145,0.03 0.391,-0.01 0.754,-0.02 1.145,-0.03 m -1.277,0.03 c -0.106,0 -0.165,0.01 -0.27,0.01 0.078,0 0.187,-0.01 0.27,-0.01 m -0.45,0.01 c -0.09,0 -0.172,0 -0.261,0.01 0.097,-0.01 0.164,-0.01 0.261,-0.01 m -0.441,0.01 c -0.09,0 -0.172,0.01 -0.262,0.01 0.078,0 0.184,-0.01 0.262,-0.01 m -0.442,0.01 c -0.085,0 -0.179,0 -0.265,0 0.098,0 0.168,0 0.265,0 m -0.437,0.01 c -0.09,0 -0.176,0 -0.266,0.01 0.082,-0.01 0.188,-0.01 0.266,-0.01 m -0.449,0.01 c -0.086,0 -0.172,0 -0.258,0 0.078,0 0.18,0 0.258,0 m -0.434,0.01 c -0.09,0 -0.18,0 -0.265,0 0.097,0 0.168,0 0.265,0 m -0.324,0 c -0.191,0 -0.395,0.01 -0.586,0.01 0.195,0 0.391,-0.01 0.586,-0.01 m -0.813,0.02 c -0.07,0 -0.148,0 -0.218,0 0.082,0 0.14,0 0.218,0 m -0.437,0 c -0.07,0 -0.16,0 -0.231,0.01 0.079,-0.01 0.153,-0.01 0.231,-0.01 m -0.449,0.01 c -0.09,0 -0.145,0 -0.235,0.01 0.078,-0.01 0.157,-0.01 0.235,-0.01 m -0.442,0.01 c -0.07,0 -0.164,0 -0.234,0 0.078,0 0.156,0 0.234,0 m -0.457,0 c -0.086,0 -0.133,0.01 -0.218,0.01 0.058,0 0.16,-0.01 0.218,-0.01 m -0.445,0.01 c -0.07,0 -0.152,0 -0.223,0 0.078,0 0.145,0 0.223,0 m -0.465,0.01 c -0.066,0 -0.129,0 -0.199,0 0.078,0 0.121,0 0.199,0 m -0.515,0 c -0.055,0 -0.145,0 -0.196,0 0.059,0 0.137,0 0.196,0 m -0.571,0.01 c -0.066,0 -0.101,0 -0.172,0 0.059,0 0.114,0 0.172,0 m -0.441,0.01 c -0.071,0 -0.141,0 -0.207,0 0.078,0 0.129,0 0.207,0 m -0.446,0 c -0.07,0 -0.136,0 -0.207,0 0.059,0 0.149,0 0.207,0 m -0.453,0 c -0.07,0 -0.132,0 -0.203,0.01 0.078,-0.01 0.125,-0.01 0.203,-0.01 m -0.453,0.01 c -0.07,0 -0.129,0 -0.199,0 0.059,0 0.141,0 0.199,0 m -0.449,0 c -0.07,0 -0.129,0 -0.199,0 0.058,0 0.14,0 0.199,0 m -0.461,0 c -0.055,0 -0.133,0 -0.184,0 0.059,0 0.125,0 0.184,0 m -0.504,0.01 c -0.051,0 -0.074,0 -0.125,0 0.039,0 0.086,0 0.125,0 m -0.578,0 c -0.035,0 -0.047,0 -0.082,0 0.02,0 0.063,0 0.082,0 m -0.441,0 c -0.051,0 -0.121,0 -0.172,0.01 0.058,-0.01 0.113,-0.01 0.172,-0.01 m -0.453,0.01 c -0.071,0 -0.114,0 -0.184,0 0.059,0 0.125,0 0.184,0 m -0.442,0 c -0.07,0 -0.133,0 -0.203,0 0.059,0 0.145,0 0.203,0 m -0.453,0 c -0.07,0 -0.125,0 -0.195,0 0.078,0 0.117,0 0.195,0 m -0.453,0 c -0.07,0 -0.121,0 -0.192,0 0.059,0 0.133,0 0.192,0 m -0.461,0 c -0.055,0 -0.129,0 -0.18,0 0.059,0 0.117,0 0.18,0 m -0.473,0 c -0.051,0 -0.105,0 -0.156,0 0.039,0 0.117,0 0.156,0 m -0.91,0 c 0.102,0 0.207,0 0.305,0 v 0 0 c -0.106,0 -0.199,0 -0.305,0" />
</clipPath>
<clipPath
   id="clipPath110"
   clipPathUnits="userSpaceOnUse">
  <path
     id="path108"
     d="m 348.117,1417.43 c 119.817,160.28 311.028,264.04 526.504,264.14 -203.074,-0.11 -403.617,-116.39 -526.504,-264.14 M 897.23,1681.2 c -0.019,0 -0.015,0 -0.035,0 h 0.035 m -0.421,0.01 h -0.036 0.036 m -0.422,0.02 c -0.02,0 -0.02,0 -0.039,0 h 0.039 m -0.434,0.01 v 0 0 m -2.058,0.06 c -0.02,0 -0.028,0 -0.047,0 0.015,0 0.031,0 0.047,0 m -0.399,0.02 c -0.039,0 -0.047,0 -0.086,0 0.035,0 0.051,0 0.086,0 m -0.414,0.01 c -0.039,0 -0.074,0 -0.113,0 0.035,0 0.078,0 0.113,0 m -0.434,0.01 c -0.039,0 -0.074,0 -0.113,0 0.035,0 0.078,0 0.113,0 m -0.429,0.01 c -0.039,0 -0.078,0 -0.121,0 0.054,0 0.066,0 0.121,0 m -0.442,0.01 c -0.019,0 -0.066,0 -0.086,0 0.016,0 0.071,0 0.086,0 m -0.433,0.01 h -0.004 0.004 m -1.149,0.03 c -0.039,0 -0.093,0 -0.132,0 0.035,0 0.097,0 0.132,0 m -0.402,0.01 c -0.059,0 -0.121,0 -0.18,0 0.051,0 0.125,0 0.18,0 m -0.441,0.01 c -0.059,0 -0.122,0 -0.18,0 0.051,0 0.129,0 0.18,0 m -0.442,0.01 c -0.055,0 -0.121,0 -0.18,0 0.071,0 0.114,0 0.18,0 m -0.445,0 c -0.059,0.01 -0.113,0.01 -0.172,0.01 0.051,0 0.117,0 0.172,-0.01 m -0.438,0.02 c -0.078,0 -0.105,0 -0.183,0 0.07,0 0.117,0 0.183,0 m -0.441,0 c -0.063,0 -0.117,0 -0.176,0.01 0.051,-0.01 0.121,-0.01 0.176,-0.01 m -0.441,0.01 h -0.059 c 0.016,0 0.039,0 0.059,0 m -0.645,0.01 c -0.078,0 -0.148,0.01 -0.227,0.01 0.086,0 0.137,-0.01 0.227,-0.01 m -0.445,0.01 c -0.078,0 -0.145,0 -0.219,0 0.066,0 0.148,0 0.219,0 m -0.45,0.01 c -0.058,0 -0.16,0 -0.218,0 0.066,0 0.148,0 0.218,0 m -0.453,0.01 c -0.078,0 -0.129,0 -0.207,0 0.071,0 0.137,0 0.207,0 m -0.441,0 c -0.078,0 -0.141,0 -0.223,0 0.071,0 0.153,0 0.223,0 m -0.441,0.01 c -0.079,0 -0.149,0 -0.227,0 0.07,0 0.156,0 0.227,0 m -0.45,0 c -0.078,0.01 -0.164,0.01 -0.242,0.01 0.09,0 0.156,0 0.242,-0.01 m -0.441,0.01 c -0.098,0 -0.219,0 -0.316,0 0.105,0 0.21,0 0.316,0 m -0.512,0 c -0.14,0.01 -0.234,0.01 -0.375,0.01 0.125,0 0.25,0 0.375,-0.01 m -0.547,0.01 c -0.078,0 -0.191,0.01 -0.269,0.01 0.09,0 0.183,-0.01 0.269,-0.01 m -0.476,0.01 c -0.082,0 -0.16,0 -0.239,0 0.071,0 0.168,0 0.239,0 m -0.446,0 c -0.078,0 -0.168,0 -0.246,0 0.086,0 0.157,0 0.246,0 m -0.449,0.01 c -0.078,0 -0.172,0 -0.25,0 0.071,0 0.18,0 0.25,0 m -0.449,0 c -0.098,0 -0.152,0 -0.25,0 0.09,0 0.164,0 0.25,0 m -0.449,0 c -0.102,0 -0.164,0 -0.262,0 0.09,0 0.172,0 0.262,0 m -0.446,0 c -0.097,0 -0.222,0.01 -0.32,0.01 0.106,0 0.215,-0.01 0.32,-0.01 m -0.445,0.01 c -0.16,0 -0.297,0 -0.453,0 0.141,0 0.313,0 0.453,0 m -0.535,0 c -0.117,0 -0.242,0 -0.359,0 0.125,0 0.234,0 0.359,0 m -0.531,0.01 c -0.098,0 -0.18,0 -0.281,0 0.089,0 0.195,0 0.281,0 m -0.465,0 c -0.098,0 -0.16,0 -0.258,0 0.09,0 0.168,0 0.258,0 m -0.461,0 c -0.078,0 -0.172,0 -0.25,0 0.07,0 0.18,0 0.25,0 m -0.445,0 c -0.082,0 -0.18,0 -0.258,0 0.09,0 0.168,0 0.258,0 m -0.45,0 c -0.097,0 -0.171,0 -0.269,0 0.086,0 0.18,0 0.269,0 m -0.449,0 c -0.097,0 -0.195,0 -0.293,0 0.106,0 0.188,0 0.293,0 m -0.449,0 c -0.156,0 -0.289,0 -0.449,0 0.14,0 0.308,0 0.449,0" />
</clipPath>
<radialGradient
   id="radialGradient120"
   spreadMethod="pad"
   gradientTransform="matrix(865.003,0,0,-865.003,865.002,865.007)"
   gradientUnits="userSpaceOnUse"
   r="1"
   cy="0"
   cx="0"
   fy="0"
   fx="0">
  <stop
     id="stop112"
     offset="0"
     style="stop-opacity:1;stop-color:#fac2e3" />
  <stop
     id="stop114"
     offset="0.00561798"
     style="stop-opacity:1;stop-color:#fac2e3" />
  <stop
     id="stop116"
     offset="0.674157"
     style="stop-opacity:1;stop-color:#ee5f4b" />
  <stop
     id="stop118"
     offset="1"
     style="stop-opacity:1;stop-color:#ae4f49" />
</radialGradient>
<clipPath
   id="clipPath130"
   clipPathUnits="userSpaceOnUse">
  <path
     id="path128"
     d="m 253.176,1238.14 c 22.351,64.96 54.605,125.34 94.941,179.29 122.887,147.75 323.43,264.03 526.504,264.14 0.106,0 0.199,0 0.305,0 v 0 c 0.16,0 0.293,0 0.449,0 0.051,0 0.105,0 0.156,0 0.098,0 0.196,0 0.293,0 0.051,0 0.125,0 0.18,0 0.098,0 0.172,0 0.269,0 0.071,0 0.122,0 0.192,0 0.078,0 0.176,0 0.258,0 0.07,0 0.125,0 0.195,0 0.078,0 0.172,0 0.25,0 0.07,0 0.133,0 0.203,0 0.098,0 0.16,0 0.258,0 0.07,0 0.113,0 0.184,0 0.101,0 0.183,0 0.281,0 0.051,-0.01 0.121,-0.01 0.172,-0.01 0.117,0 0.242,0 0.359,0 0.035,0 0.047,0 0.082,0 0.156,0 0.293,0 0.453,0 0.051,0 0.074,0 0.125,0 0.098,0 0.223,-0.01 0.32,-0.01 0.051,0 0.129,0 0.184,0 0.098,0 0.16,0 0.262,0 0.07,0 0.129,0 0.199,0 0.098,0 0.152,0 0.25,0 0.07,0 0.129,0 0.199,0 0.078,0 0.172,0 0.25,0 0.071,-0.01 0.133,-0.01 0.203,-0.01 0.078,0 0.168,0 0.246,0 0.071,0 0.137,0 0.207,0 0.079,0 0.157,0 0.239,0 0.066,0 0.136,0 0.207,0 0.078,0 0.191,-0.01 0.269,-0.01 0.071,0 0.106,0 0.172,0 0.141,0 0.235,0 0.375,-0.01 0.051,0 0.141,0 0.196,0 0.097,0 0.218,0 0.316,0 0.07,0 0.133,0 0.199,0 0.078,0 0.164,0 0.242,-0.01 0.071,0 0.153,0 0.223,0 0.078,0 0.148,0 0.227,0 0.085,0 0.132,-0.01 0.218,-0.01 0.082,0 0.145,0 0.223,0 0.07,0 0.164,0 0.234,0 0.078,0 0.129,0 0.207,0 0.09,-0.01 0.145,-0.01 0.235,-0.01 0.058,0 0.16,0 0.218,0 0.071,-0.01 0.161,-0.01 0.231,-0.01 0.074,0 0.141,0 0.219,0 0.07,0 0.148,0 0.218,0 0.079,0 0.149,-0.01 0.227,-0.01 0.191,0 0.395,-0.01 0.586,-0.01 h 0.059 c 0.085,0 0.175,0 0.265,0 0.059,-0.01 0.113,-0.01 0.176,-0.01 0.086,0 0.172,0 0.258,0 0.078,0 0.105,0 0.183,0 0.09,-0.01 0.176,-0.01 0.266,-0.01 0.059,0 0.113,0 0.172,-0.01 0.086,0 0.18,0 0.265,0 0.059,0 0.125,0 0.18,0 0.09,0 0.172,-0.01 0.262,-0.01 0.058,0 0.121,0 0.18,0 0.089,-0.01 0.171,-0.01 0.261,-0.01 0.059,0 0.121,0 0.18,0 0.105,0 0.164,-0.01 0.27,-0.01 0.039,0 0.093,0 0.132,0 0.383,-0.01 0.758,-0.02 1.145,-0.03 h 0.004 c 0.121,0 0.222,0 0.347,-0.01 0.02,0 0.067,0 0.086,0 0.106,0 0.219,0 0.321,-0.01 0.043,0 0.082,0 0.121,0 0.101,0 0.211,-0.01 0.316,-0.01 0.039,0 0.074,0 0.113,0 0.106,0 0.215,-0.01 0.321,-0.01 0.039,0 0.074,0 0.113,0 0.106,-0.01 0.223,-0.01 0.328,-0.01 0.039,0 0.047,0 0.086,0 0.121,-0.01 0.231,-0.01 0.352,-0.02 0.019,0 0.027,0 0.047,0 0.679,-0.01 1.375,-0.03 2.058,-0.06 v 0 c 0.141,0 0.254,-0.01 0.395,-0.01 0.019,0 0.019,0 0.039,0 0.14,-0.01 0.246,-0.01 0.386,-0.02 h 0.036 c 0.14,0 0.25,0 0.386,-0.01 0.02,0 0.016,0 0.035,0 278.45,-9.27 512.98,-191.72 599.46,-443.06 -106.76,236.96 -344.99,401.91 -621.764,401.91 -276.758,0 -515,-164.96 -621.75,-401.91" />
</clipPath>

	

		
	
			
			
			
			
			
		
				
				
			
				
				
				
				
			
				
				
			</defs>
  <metadata
     id="metadata5">
    <rdf:RDF>
      <cc:Work
         rdf:about="">
        <dc:format>image/svg+xml</dc:format>
        <dc:type
           rdf:resource="http://purl.org/dc/dcmitype/StillImage" />
        <dc:title></dc:title>
      </cc:Work>
    </rdf:RDF>
  </metadata>
  <g
     id="layer1"
     transform="translate(-501.46634,-830.84476)">
    <g
       id="g1777">
      <polygon
         points="404.321,470.819 255.778,512 107.644,470.877 74.633,100.62 437.367,100.62 "
         id="polygon9"
         style="fill:#e44d26"
         transform="matrix(0.85827131,0,0,0.85827131,437.41098,744.4855)" />
      <polygon
         points="404.27,130.894 256,130.894 256,480.523 376.03,447.246 "
         id="polygon11"
         style="fill:#f16529"
         transform="matrix(0.85827131,0,0,0.85827131,437.41098,744.4855)" />
    </g>
    <g
       id="g1773"
       transform="translate(0.1347486,3.7881664)">
      <polygon
         points="255.843,176.305 142.132,176.305 143.219,188.488 154.38,313.627 256,313.627 256,268.217 195.91,268.217 191.76,221.716 256,221.716 256,176.305 "
         id="polygon15"
         style="fill:#ebebeb"
         transform="matrix(0.85827131,0,0,0.85827131,437.41098,744.4855)" />
      <polygon
         points="255.791,433.457 256,433.399 256,386.153 255.801,386.206 205.227,372.55 201.994,336.333 177.419,336.333 156.409,336.333 162.771,407.634 "
         id="polygon17"
         style="fill:#ebebeb"
         transform="matrix(0.85827131,0,0,0.85827131,437.41098,744.4855)" />
      <polygon
         points="349.62,399.962 360.291,280.411 361.399,268.217 349.162,268.217 255.843,268.217 255.843,313.627 311.761,313.627 306.49,372.521 255.843,386.191 255.843,433.435 348.937,407.634 "
         id="polygon31"
         style="fill:#ffffff"
         transform="matrix(0.85827131,0,0,0.85827131,437.41098,744.4855)" />
      <polygon
         points="365.531,221.716 366.442,211.509 368.511,188.488 369.597,176.305 255.843,176.305 255.843,204.509 255.843,221.605 255.843,221.716 365.385,221.716 "
         id="polygon33"
         style="fill:#ffffff"
         transform="matrix(0.85827131,0,0,0.85827131,437.41098,744.4855)" />
    </g>
  </g>
</svg>
